<?xml version="1.0" standalone="no"?>
<!DOCTYPE svg PUBLIC "-//W3C//DTD SVG 20010904//EN"
 "http://www.w3.org/TR/2001/REC-SVG-20010904/DTD/svg10.dtd">
<svg version="1.0" xmlns="http://www.w3.org/2000/svg"
 width="260.000000pt" height="260.000000pt" viewBox="0 0 260.000000 260.000000"
 preserveAspectRatio="xMidYMid meet">
<metadata>
Created by potrace 1.11, written by Peter Selinger 2001-2013
</metadata>
<g transform="translate(0.000000,260.000000) scale(0.100000,-0.100000)"
fill="#000000" stroke="none">
<path d="M1545 2165 c-38 -13 -81 -24 -95 -25 -45 -1 -108 -37 -125 -70 -14
-27 -15 -40 -5 -78 9 -41 8 -57 -13 -121 l-23 -73 -23 70 c-17 53 -21 81 -16
116 14 89 -26 132 -136 147 -38 6 -88 17 -111 25 -79 27 -182 10 -275 -47 -29
-18 -37 -19 -90 -8 -79 16 -108 8 -132 -39 -10 -20 -30 -50 -44 -66 -21 -24
-26 -42 -29 -100 -2 -39 0 -107 3 -151 4 -44 10 -118 13 -164 l7 -84 -30 32
c-40 43 -89 61 -163 61 -69 0 -126 -21 -170 -63 -15 -14 -30 -22 -33 -18 -4 3
-5 1 -4 -4 2 -6 -8 -30 -20 -55 -19 -35 -25 -66 -29 -137 -10 -191 33 -293
175 -415 37 -31 213 -118 291 -144 29 -9 59 -23 66 -30 8 -7 16 -11 18 -8 3 2
10 -8 16 -23 12 -32 55 -210 56 -234 0 -9 7 -15 16 -13 8 2 83 5 165 8 153 5
248 18 392 55 100 26 135 26 248 2 50 -11 140 -24 200 -30 121 -11 357 -13
351 -2 -5 7 11 93 21 121 3 8 7 31 9 50 9 91 22 103 169 161 107 42 198 100
275 178 41 42 76 81 77 86 1 6 9 28 17 50 8 22 15 52 16 68 0 15 5 27 10 27 6
0 10 38 10 95 0 52 -4 95 -8 95 -4 0 -14 20 -21 44 -7 25 -28 63 -48 85 -19
23 -31 46 -27 52 5 8 3 9 -5 5 -7 -5 -35 2 -63 14 -100 43 -221 19 -275 -55
l-18 -26 1 43 c1 24 3 125 4 225 l2 183 -28 36 c-16 20 -36 50 -45 66 -31 59
-68 70 -146 43 -41 -14 -65 -12 -91 8 -24 19 -147 57 -182 56 -19 0 -66 -11
-105 -24z m447 -97 c-2 -20 1 -46 7 -57 15 -27 -13 -35 -73 -20 -57 14 -65 25
-32 41 14 6 26 17 26 25 0 20 39 55 58 51 13 -3 16 -12 14 -40z m-1368 -4 c9
-8 16 -21 16 -28 0 -7 11 -19 25 -26 14 -7 25 -17 25 -21 0 -10 -66 -29 -102
-29 -27 0 -27 1 -21 50 4 35 2 50 -6 50 -7 0 -9 5 -6 10 9 15 52 12 69 -6z
m947 -133 c-8 -5 -9 -11 -3 -15 7 -4 5 -27 -5 -69 -8 -34 -21 -89 -27 -122
l-12 -60 -49 2 c-83 3 -118 12 -106 27 11 13 31 75 45 138 8 37 101 107 141
107 20 1 26 -2 16 -8z m-473 -44 c42 -29 50 -42 72 -108 14 -41 29 -80 33 -87
10 -15 -20 -28 -89 -37 -27 -4 -58 -9 -69 -11 -20 -5 -20 -5 -1 10 11 9 15 16
8 16 -6 0 -9 9 -7 20 2 11 1 20 -3 20 -4 0 -8 8 -9 18 -5 42 -17 89 -29 107
-11 17 -12 35 -5 89 2 15 51 -4 99 -37z m902 10 l55 -11 -40 -6 -40 -6 33 -8
c31 -7 42 -21 22 -28 -5 -1 -12 -48 -14 -103 -3 -55 -7 -112 -9 -127 -3 -23 0
-28 16 -28 11 0 17 -3 14 -6 -4 -4 -40 -1 -82 6 -73 13 -75 13 -69 39 5 21 20
186 23 249 1 7 15 12 34 13 24 0 19 4 -25 13 -32 7 -61 16 -65 20 -9 9 64 1
147 -17z m-1330 -23 c-25 -7 -63 -13 -85 -13 l-40 1 45 13 c25 7 63 13 85 13
l40 1 -45 -15z m-15 -44 c-2 -11 0 -20 6 -20 5 0 9 -21 9 -47 1 -27 5 -67 9
-90 5 -26 5 -43 -1 -43 -5 0 0 -13 11 -28 l20 -29 -52 -11 c-112 -23 -124 -24
-104 -9 12 10 17 29 17 66 0 29 -4 50 -9 46 -5 -3 -11 28 -13 70 -2 44 1 77 7
79 6 3 1 5 -10 6 -18 1 -17 3 5 12 30 13 92 26 102 21 4 -2 5 -12 3 -23z
m1748 -231 c50 -14 97 -56 127 -116 21 -41 25 -63 27 -154 3 -183 -25 -244
-167 -353 -106 -83 -300 -158 -300 -117 0 12 11 16 45 17 81 2 260 103 330
186 51 60 68 113 73 229 4 91 1 115 -16 162 -12 31 -29 66 -39 77 -31 37 -93
63 -150 63 -55 0 -83 -15 -146 -78 -34 -35 -49 -24 -16 11 68 74 143 98 232
73z m-2079 -43 c42 -18 106 -74 106 -94 0 -10 -9 -6 -29 14 -85 83 -158 99
-242 53 -77 -42 -109 -112 -109 -235 0 -153 34 -237 126 -314 90 -75 261 -148
320 -138 13 2 20 -4 22 -20 3 -20 1 -22 -15 -14 -10 5 -40 15 -68 21 -127 30
-302 144 -358 233 -42 67 -61 251 -36 342 35 126 170 199 283 152z m2060 -17
c14 -7 23 -16 20 -21 -3 -5 -2 -8 3 -7 22 4 34 -4 50 -33 9 -18 16 -36 15 -40
-1 -5 2 -8 8 -8 18 0 32 -84 26 -153 -14 -151 -112 -256 -300 -323 -49 -18
-87 -18 -111 0 -17 12 -17 20 -7 102 6 49 14 112 16 139 16 158 17 164 39 167
15 2 34 26 63 78 55 101 108 130 178 99z m-2059 -61 c19 -18 50 -60 68 -93 25
-46 38 -59 54 -58 19 2 22 -6 32 -90 7 -51 19 -138 28 -194 14 -84 14 -105 3
-117 -41 -51 -262 30 -344 126 -94 109 -112 272 -43 375 59 87 141 107 202 51z
m1042 -774 c-3 -3 -12 -4 -19 -1 -8 3 -5 6 6 6 11 1 17 -2 13 -5z m-70 -20
c-3 -3 -12 -4 -19 -1 -8 3 -5 6 6 6 11 1 17 -2 13 -5z m-77 -24 c-53 -22 -45
-24 34 -9 123 22 52 -9 -109 -49 -92 -23 -253 -48 -260 -40 -3 3 18 14 47 26
l53 21 -55 -5 c-33 -2 14 12 120 35 196 44 236 49 170 21z m460 -29 l45 -9
-50 -2 -50 -2 49 -11 c27 -7 51 -17 53 -23 2 -7 -27 -7 -99 2 -57 7 -112 14
-123 14 -14 1 -6 8 25 24 45 24 56 24 150 7z m113 -18 c-7 -2 -21 -2 -30 0
-10 3 -4 5 12 5 17 0 24 -2 18 -5z m-940 -20 c-7 -2 -21 -2 -30 0 -10 3 -4 5
12 5 17 0 24 -2 18 -5z m352 -34 c-106 -33 -292 -63 -272 -43 11 11 251 62
292 62 40 0 40 0 -20 -19z m420 -14 l60 -15 -80 4 c-44 3 -105 10 -135 17 -46
10 -51 13 -30 19 27 6 88 -2 185 -25z"/>
</g>
</svg>
